<svg width="220" height="50" viewBox="0 0 220 50" fill="none" xmlns="http://www.w3.org/2000/svg">
<path d="M17.5338 3.10431L38.5581 10.7565C32.067 28.5908 11.0426 20.9385 4.55152 38.7727L25.5758 46.425C32.067 28.5907 11.0426 20.9385 17.5338 3.10431Z" stroke="white" stroke-opacity="0.98" stroke-width="4"/>
<path d="M16.2899 2.65158L39.8019 11.2092M3.30768 38.32L26.8197 46.8777" stroke="white" stroke-opacity="0.98" stroke-width="4" stroke-linecap="round"/>
<path d="M62.9399 24.7646V33.455M71.2049 30.7695L62.9399 33.455M68.048 40.4857L62.9399 33.455M57.8318 40.4857L62.9399 33.455M54.6749 30.7695L62.9399 33.455" stroke="white" stroke-width="3.5" stroke-linecap="round" stroke-linejoin="round"/>
<path d="M99.4699 24.7646V33.455M107.735 30.7695L99.4699 33.455M104.578 40.4857L99.4699 33.455M94.3619 40.4857L99.4699 33.455M91.2049 30.7695L99.4699 33.455" stroke="white" stroke-width="3.5" stroke-linecap="round" stroke-linejoin="round"/>
<path d="M136 24.7646V33.455M144.265 30.7695L136 33.455M141.108 40.4857L136 33.455M130.892 40.4857L136 33.455M127.735 30.7695L136 33.455" stroke="white" stroke-width="3.5" stroke-linecap="round" stroke-linejoin="round"/>
<path d="M172.53 24.7646V33.455M180.795 30.7695L172.53 33.455M177.638 40.4857L172.53 33.455M167.422 40.4857L172.53 33.455M164.265 30.7695L172.53 33.455" stroke="white" stroke-width="3.5" stroke-linecap="round" stroke-linejoin="round"/>
<path d="M209.06 24.7646V33.455M217.325 30.7695L209.06 33.455M214.168 40.4857L209.06 33.455M203.952 40.4857L209.06 33.455M200.795 30.7695L209.06 33.455" stroke="white" stroke-width="3.5" stroke-linecap="round" stroke-linejoin="round"/>
</svg>
